<?xml version="1.0" standalone="no"?>
<!DOCTYPE svg PUBLIC "-//W3C//DTD SVG 20010904//EN"
 "http://www.w3.org/TR/2001/REC-SVG-20010904/DTD/svg10.dtd">
<svg version="1.0" xmlns="http://www.w3.org/2000/svg"
 width="1280.000000pt" height="809.000000pt" viewBox="0 0 1280.000000 809.000000"
 preserveAspectRatio="xMidYMid meet">
<metadata>
Created by potrace 1.15, written by Peter Selinger 2001-2017
</metadata>
<g transform="translate(0.000000,809.000000) scale(0.100000,-0.100000)"
fill="#FFFFFF" stroke="none">
<path d="M11113 7657 l-43 -21 0 -668 0 -667 -32 -5 c-328 -53 -439 -73 -578
-102 -367 -78 -700 -170 -1100 -304 -146 -48 -273 -91 -282 -95 -17 -7 -18 22
-18 523 0 414 -3 532 -13 540 -9 7 -26 5 -60 -10 l-47 -21 0 -542 0 -543 -62
-23 c-117 -42 -487 -198 -686 -288 -406 -183 -833 -399 -1267 -639 -142 -79
-182 -97 -188 -86 -4 8 -13 85 -19 172 -6 86 -15 160 -21 163 -5 4 -24 1 -41
-6 l-31 -13 -3 -200 -2 -200 -423 -240 c-518 -293 -841 -472 -854 -472 -5 0
-23 159 -42 373 -36 401 -37 405 -91 392 -76 -18 -996 -288 -1003 -294 -6 -6
54 -727 78 -938 l6 -51 -203 -80 c-226 -89 -490 -180 -706 -242 l-143 -41 -44
31 c-111 76 -268 129 -391 130 l-40 0 -27 211 -28 212 99 101 c208 214 320
403 377 639 62 255 56 579 -16 847 -55 204 -207 420 -297 420 -85 0 -267 -252
-335 -465 -56 -172 -62 -227 -61 -530 0 -243 4 -304 25 -458 l26 -178 -101
-92 c-56 -51 -173 -158 -261 -239 -361 -329 -488 -518 -535 -795 l-12 -73
-198 0 -198 0 5 43 c5 39 2 46 -27 70 -45 38 -76 44 -108 20 -23 -17 -27 -28
-27 -72 0 -46 -2 -51 -22 -51 -20 0 -23 5 -23 43 0 185 -148 327 -341 327
-159 0 -299 -101 -331 -237 -15 -64 -7 -62 -192 -28 -74 14 -140 25 -146 25
-5 0 -10 -10 -10 -23 0 -21 9 -24 153 -50 83 -15 160 -27 169 -27 17 0 34 -17
25 -26 -4 -4 -285 49 -329 62 -14 4 -18 -1 -18 -19 0 -29 -11 -25 224 -73 147
-29 206 -48 193 -60 -2 -2 -93 17 -203 41 -109 25 -202 45 -206 45 -5 0 -8
-11 -8 -24 0 -18 7 -25 28 -29 15 -2 117 -25 227 -50 174 -40 510 -107 536
-107 5 0 9 -7 9 -15 0 -8 -9 -15 -20 -15 -34 0 -355 70 -573 124 -206 52 -207
52 -207 29 0 -18 9 -25 53 -38 85 -26 483 -122 605 -147 87 -18 112 -26 110
-38 -2 -10 -12 -14 -28 -12 -68 9 -652 160 -722 187 -14 6 -18 2 -18 -19 0
-23 7 -27 68 -45 173 -52 331 -95 487 -133 94 -24 172 -44 174 -45 10 -7 -29
-62 -121 -172 -99 -118 -114 -153 -70 -159 16 -2 60 35 174 148 l153 151 175
-35 c234 -48 315 -62 514 -90 92 -14 169 -26 170 -28 2 -2 25 -37 51 -78 130
-198 313 -332 537 -392 70 -19 109 -23 248 -23 91 0 185 3 210 8 l46 8 34
-275 c31 -251 33 -282 22 -356 -29 -200 -152 -329 -345 -360 -104 -16 -204 7
-250 58 -17 19 -17 19 29 26 231 31 332 293 179 464 -65 72 -136 105 -226 104
-174 -1 -298 -130 -298 -312 -1 -130 42 -232 134 -325 208 -208 555 -207 764
2 157 158 179 314 113 805 l-28 207 64 27 c71 30 187 104 244 156 47 43 123
139 147 186 l19 38 220 22 c635 65 1164 173 1987 408 182 52 338 97 348 100
14 5 13 -1 -7 -31 -58 -85 -80 -199 -56 -286 22 -80 123 -159 222 -174 130
-20 308 48 430 163 126 119 147 173 150 395 l3 147 30 10 c73 23 347 91 351
87 3 -2 0 -16 -6 -31 -17 -46 -13 -86 9 -86 24 0 48 30 80 97 l23 51 147 32
c965 210 1949 211 2881 4 824 -183 1659 -542 2420 -1038 69 -45 131 -85 138
-90 9 -6 12 26 12 146 l0 154 -177 106 c-538 322 -1005 540 -1543 719 -697
231 -1344 339 -2058 343 l-263 1 38 29 c63 49 170 163 199 211 14 25 34 72 44
103 l18 57 133 8 c159 10 618 2 809 -13 899 -72 1737 -307 2580 -723 113 -56
208 -103 213 -105 4 -2 7 64 7 146 l0 149 -132 63 c-542 258 -1096 444 -1667
559 l-184 38 70 46 c89 59 209 185 250 262 17 33 37 87 43 121 l12 60 116 -18
c424 -67 950 -208 1361 -364 64 -24 119 -44 124 -44 4 0 6 66 5 146 l-3 146
-80 30 c-137 50 -431 138 -627 188 -103 25 -190 49 -194 52 -3 3 14 43 37 89
76 153 112 262 155 476 3 18 9 22 32 18 151 -27 377 -74 511 -106 90 -21 165
-39 167 -39 3 0 3 66 2 148 l-3 147 -235 47 c-129 25 -287 54 -351 63 l-115
17 -13 61 c-7 34 -19 74 -27 90 -14 26 -13 37 7 120 17 70 22 124 23 226 l1
133 120 -6 c115 -7 447 -38 548 -52 l47 -7 0 147 c0 80 -1 146 -2 146 -2 0
-70 7 -153 15 -82 8 -259 18 -393 22 l-243 6 -46 91 c-86 171 -153 255 -418
526 -323 331 -354 381 -355 577 0 122 -9 133 -77 100z m278 -903 c117 -72 194
-130 277 -209 68 -63 159 -172 151 -179 -2 -2 -93 -9 -202 -16 -188 -11 -199
-11 -213 7 -136 172 -214 340 -214 461 l0 53 58 -32 c31 -18 96 -56 143 -85z
m548 -668 c14 -17 28 -185 20 -251 -3 -27 -7 -44 -7 -38 -1 7 -63 75 -137 152
-106 108 -132 140 -118 144 10 3 66 5 124 6 79 1 109 -3 118 -13z m-542 -137
c205 -132 300 -204 371 -285 53 -59 118 -161 109 -171 -4 -3 -75 -1 -159 5
-84 7 -237 15 -340 18 l-188 7 0 273 c0 172 4 274 10 274 5 0 94 -54 197 -121z
m-327 -163 l0 -263 -46 -7 c-26 -3 -80 -6 -120 -6 -40 0 -157 -7 -261 -15
-451 -36 -876 -107 -1360 -225 -111 -28 -207 -50 -213 -50 -6 0 -10 64 -10
188 l0 188 208 67 c355 113 642 191 972 261 269 57 678 123 783 125 l47 1 0
-264z m-2130 -420 l0 -185 -117 -36 c-565 -174 -1114 -388 -1705 -666 l-192
-90 -23 28 c-62 72 -113 147 -106 154 4 4 67 38 138 76 572 307 1096 552 1610
756 337 133 368 145 383 146 9 1 12 -42 12 -183z m2130 -347 c0 -235 -1 -251
-17 -244 -116 48 -126 50 -268 49 -126 0 -149 -3 -225 -28 -72 -24 -111 -29
-250 -37 -599 -31 -761 -47 -1235 -122 -6 -1 -11 69 -13 190 l-2 192 37 10
c21 6 119 29 218 51 560 123 1072 185 1548 189 l207 1 0 -251z m380 241 c152
-11 411 -36 469 -47 l34 -6 -6 -91 c-8 -109 -33 -219 -88 -381 l-40 -121 -174
32 c-96 17 -238 40 -315 50 l-140 18 0 278 0 278 58 0 c31 0 122 -5 202 -10z
m-8472 -90 c43 -26 70 -88 90 -204 44 -262 -83 -553 -362 -825 -53 -52 -55
-53 -60 -30 -28 130 -37 449 -16 596 35 257 124 424 249 469 49 18 61 17 99
-6z m5962 -369 l0 -189 -77 -17 c-513 -110 -995 -252 -1467 -430 -199 -75
-199 -75 -214 -53 -8 11 -46 56 -84 98 l-68 78 193 85 c416 184 765 320 1132
441 175 58 556 174 578 175 4 1 7 -84 7 -188z m1190 -303 c-68 -103 -99 -228
-81 -330 6 -35 14 -72 17 -83 5 -20 0 -20 -363 -20 -202 0 -430 -3 -505 -8
l-138 -8 0 195 c0 193 0 194 23 199 45 12 337 46 512 62 239 20 257 21 418 23
l139 2 -22 -32z m-3512 -145 l-3 -118 -625 -314 -625 -313 -7 43 c-3 24 -7 64
-7 89 l-1 45 203 108 c111 59 393 213 627 342 234 129 429 235 433 235 4 0 6
-53 5 -117z m-1407 95 c1 -2 13 -131 29 -288 18 -187 24 -289 18 -297 -12 -15
-630 -323 -781 -389 -59 -26 -110 -44 -114 -40 -6 5 -72 674 -73 736 0 24 8
27 188 78 103 29 302 86 442 127 227 66 287 81 291 73z m3729 -153 l0 -125
-40 20 c-129 66 -309 67 -468 4 -139 -56 -308 -181 -362 -268 -18 -31 -28 -35
-118 -56 -124 -28 -290 -71 -464 -121 -75 -21 -138 -39 -141 -39 -2 0 -8 24
-11 53 -4 28 -19 85 -33 125 -13 41 -23 76 -20 78 3 3 96 37 208 75 411 142
828 257 1225 339 104 21 197 39 207 39 15 1 17 -11 17 -124z m-2069 -130 c63
-31 127 -76 158 -109 23 -24 23 -26 5 -32 -10 -4 -86 -36 -167 -70 -103 -43
-150 -59 -153 -50 -3 7 -3 61 -2 122 l3 109 50 27 c28 15 52 28 54 28 1 0 25
-11 52 -25z m-253 -196 l-3 -121 -350 -155 c-192 -85 -468 -205 -612 -268
l-262 -113 -5 52 c-4 28 -7 68 -9 89 l-2 37 205 98 c113 53 390 188 615 299
226 110 414 202 418 202 4 1 6 -54 5 -120z m557 -110 c25 -55 61 -176 54 -184
-6 -5 -467 -166 -497 -172 l-23 -5 3 123 3 124 205 82 c113 46 211 83 218 83
7 0 24 -23 37 -51z m-1891 -171 c13 -115 16 -110 -76 -152 -398 -183 -812
-355 -824 -344 -3 3 -6 34 -7 68 l-2 62 175 76 c96 42 294 136 440 208 146 73
270 133 276 133 6 1 14 -23 18 -51z m2695 -43 c0 -81 27 -144 84 -202 22 -24
37 -43 32 -43 -61 0 -521 -83 -704 -126 -57 -13 -106 -23 -108 -21 -2 2 8 45
21 96 14 50 28 116 31 146 l7 55 52 15 c56 17 538 137 578 144 3 0 6 -28 7
-64z m-1361 -66 l-3 -121 -525 -197 c-718 -269 -703 -264 -696 -245 3 9 6 52
6 97 l0 82 148 59 c81 33 352 146 602 253 250 106 459 193 463 193 4 0 6 -54
5 -121z m602 -173 c-6 -32 -20 -88 -31 -122 -17 -54 -24 -65 -47 -70 -15 -4
-114 -31 -220 -60 -107 -30 -198 -54 -203 -54 -15 0 -11 236 4 248 6 5 122 46
257 89 l245 80 3 -26 c2 -14 -2 -52 -8 -85z m-4630 97 c0 -3 9 -80 21 -170 11
-91 19 -166 17 -167 -1 -1 -33 -15 -70 -30 -129 -54 -241 -149 -294 -251 -31
-59 -23 -56 -196 -71 -59 -5 -78 -4 -78 6 0 25 86 177 142 250 80 106 163 192
313 325 120 107 145 125 145 108z m2725 -140 c5 -65 4 -83 -7 -85 -7 0 -44 -2
-83 -3 -83 -2 -137 -26 -205 -89 -49 -46 -136 -83 -459 -191 l-159 -53 -7 65
c-4 36 -3 69 2 73 4 4 67 29 138 55 151 56 528 213 665 278 52 24 98 42 101
38 4 -3 10 -43 14 -88z m1303 -175 l-3 -121 -170 -53 c-93 -28 -352 -108 -575
-177 -993 -307 -1488 -424 -2173 -512 -268 -34 -247 -36 -231 27 8 28 19 55
25 59 6 4 39 10 73 14 33 3 147 22 251 40 159 28 196 32 230 23 58 -16 124 -3
191 38 44 27 103 46 253 84 108 27 279 73 381 103 102 30 214 57 249 60 47 4
76 13 114 37 29 18 189 80 362 141 170 60 465 165 655 233 190 69 351 125 358
125 10 1 12 -27 10 -121z m-2313 43 c4 -33 4 -64 1 -70 -15 -23 -853 -281
-916 -281 -9 0 -31 18 -49 40 l-31 39 57 17 c272 76 577 177 793 263 69 27
128 49 132 50 3 1 9 -26 13 -58z m-3605 -159 c19 -10 49 -39 66 -64 31 -45 73
-172 61 -184 -3 -4 -42 -3 -87 1 -79 7 -81 8 -94 40 -31 73 -119 106 -185 68
-35 -20 -46 -14 -37 21 16 65 121 136 201 136 22 0 56 -8 75 -18z m3624 -53
c11 -57 10 -58 -31 -43 -104 37 -227 -11 -312 -123 -37 -48 -29 -45 -281 -103
-260 -60 -235 -60 -259 -4 -12 26 -20 48 -19 49 2 1 80 21 173 44 166 42 536
151 645 190 74 26 77 26 84 -10z m611 -151 c5 -14 0 -20 -21 -29 -45 -17 -507
-149 -523 -149 -8 0 -11 6 -6 18 4 9 12 42 17 73 l11 56 251 84 251 84 6 -60
c4 -33 10 -68 14 -77z m-1971 -56 l41 -18 -93 -15 c-50 -9 -92 -12 -92 -9 0 4
-3 22 -7 40 l-6 33 58 -7 c32 -3 76 -15 99 -24z m-281 -33 l5 -36 -81 -12
c-44 -6 -82 -9 -84 -7 -5 5 66 52 112 75 22 11 40 19 41 18 1 -1 4 -18 7 -38z
m-1890 -15 c22 -4 37 -11 37 -20 0 -17 -3 -17 -107 -2 -61 8 -83 15 -83 26 0
14 34 14 153 -4z m1410 -36 c-3 -18 -7 -35 -9 -36 -1 -2 -57 -6 -123 -9 l-120
-6 8 29 c7 29 8 29 122 40 63 6 117 12 121 13 4 0 5 -14 1 -31z m-775 -4 l192
-7 0 -25 0 -24 -132 6 c-183 9 -406 25 -445 31 -24 4 -31 10 -26 22 5 13 21
15 112 9 58 -3 193 -9 299 -12z m1712 -34 c18 -23 31 -42 29 -44 -7 -6 -320
-48 -325 -44 -2 3 -5 22 -7 44 l-2 38 125 22 c69 12 130 22 137 23 6 0 26 -17
43 -39z m-2416 -2 c56 -7 90 -17 93 -25 3 -8 3 -16 1 -18 -4 -5 -130 15 -238
37 -44 9 -51 12 -35 19 11 5 36 6 55 4 19 -3 75 -10 124 -17z m3198 -45 c2
-32 3 -60 2 -61 -3 -5 -359 -70 -404 -74 l-35 -3 -3 52 c-3 48 -1 53 20 58 13
2 100 21 193 41 94 20 172 38 174 40 2 2 14 4 27 4 20 0 23 -6 26 -57z m-1222
0 c0 -10 3 -28 6 -39 5 -20 1 -22 -78 -28 -46 -4 -114 -9 -151 -13 l-69 -6 21
41 20 40 83 10 c138 16 168 15 168 -5z m-1530 -7 c85 -8 221 -18 302 -22 143
-7 146 -7 151 -30 4 -23 2 -24 -52 -24 -60 0 -298 21 -473 41 -100 12 -123 21
-101 42 8 9 -10 9 173 -7z m1022 -51 l4 -35 -128 0 c-115 0 -128 2 -128 18 0
35 15 41 110 45 52 1 105 4 116 5 18 2 23 -4 26 -33z m1038 -66 c6 -23 9 -43
6 -46 -5 -6 -168 -25 -302 -37 l-71 -6 -6 42 c-3 24 -5 43 -4 44 1 2 79 12
172 24 93 12 172 23 174 26 9 9 21 -10 31 -47z m-2105 21 c124 -16 466 -50
503 -50 5 0 12 -12 15 -26 l5 -27 -84 7 c-137 10 -557 67 -601 81 -12 4 -7 35
6 35 3 0 74 -9 156 -20z m1598 -72 c3 -24 5 -44 4 -45 -1 -1 -75 -5 -165 -9
l-162 -7 0 42 0 41 78 1 c66 1 213 12 233 17 4 1 9 -17 12 -40z m-504 -19 c6
-18 11 -34 11 -35 0 -2 -59 -4 -130 -4 l-130 0 -10 26 c-6 14 -10 30 -10 35 0
5 56 9 129 9 l129 0 11 -31z m-1124 -4 c134 -22 362 -53 516 -70 48 -5 58 -10
68 -32 6 -14 10 -27 8 -30 -12 -11 -768 115 -784 131 -9 9 8 26 26 26 9 0 84
-11 166 -25z m2149 -107 c-4 -24 -10 -47 -14 -51 -7 -8 -215 -25 -311 -27 -36
0 -37 1 -41 43 -3 23 -4 43 -2 45 2 4 272 29 332 31 l42 1 -6 -42z m-1093 2
l116 0 27 -41 27 -40 -83 6 c-228 16 -228 16 -238 35 -18 33 -13 53 13 46 12
-3 74 -6 138 -6z m589 -9 c0 -5 3 -23 6 -40 l7 -31 -145 0 -144 0 -17 35 c-9
20 -17 38 -17 40 0 3 70 5 155 5 85 0 155 -4 155 -9z m-490 -136 c135 -7 135
-7 226 -52 97 -48 184 -68 184 -41 0 8 -26 28 -57 44 l-58 29 104 3 c57 1 105
1 108 -1 8 -9 37 -257 30 -264 -17 -16 -225 -15 -303 2 -160 34 -320 134 -403
250 l-34 48 34 -6 c19 -3 95 -9 169 -12z m940 -13 c0 -14 -54 -84 -91 -119
-37 -34 -147 -103 -165 -103 -7 0 -16 37 -23 88 -17 138 -20 130 47 135 120 7
232 7 232 -1z"/>
<path d="M1003 3174 c-22 -22 -24 -31 -19 -67 9 -56 40 -87 86 -87 62 0 106
62 81 116 -13 29 -67 64 -99 64 -13 0 -34 -12 -49 -26z"/>
</g>
</svg>
